<?xml version="1.0" encoding="utf-8"?>
<svg width="512" height="512" viewBox="-120 -40 320 320" fill="none" xmlns="http://www.w3.org/2000/svg" xmlns:bx="https://boxy-svg.com"><defs><bx:export><bx:file format="svg"/></bx:export></defs><g transform="matrix(1.194025, 0, 0, 1.226705, -114.911598, 40.464672)" style=""><path d="M128 192C181.024 192 224 160 224 104C224 80 216 40 184 8C188 32 164 40 164 40C176 0 144 -56 96 -64C101.712 -32 104 0 64 32C44 48 32 75.664 32 104C32 160 74.976 192 128 192ZM128 176C101.488 176 80 160 80 132C80 120 84 100 100 84C98 96 112 104 112 104C106 84 120 52 144 48C141.136 64 140 80 160 96C170 104 176 117.824 176 132C176 160 154.512 176 128 176Z" fill="#32ADE6"/></g></svg>